<mxfile host="app.diagrams.net" modified="2024-04-25T14:29:16.449Z" agent="Mozilla/5.0 (Macintosh; Intel Mac OS X 10_15_7) AppleWebKit/605.1.15 (KHTML, like Gecko) Version/17.3 Safari/605.1.15" etag="E0uxJqT5TsfVf3OAWIJM" version="24.2.8" type="device">
  <diagram name="Страница — 1" id="xEmgllcR3weaRd5ca7ey">
    <mxGraphModel dx="1546" dy="952" grid="1" gridSize="10" guides="1" tooltips="1" connect="1" arrows="1" fold="1" page="1" pageScale="1" pageWidth="827" pageHeight="1169" math="0" shadow="0">
      <root>
        <mxCell id="0" />
        <mxCell id="1" parent="0" />
        <mxCell id="bxHcni_rUdnKQo_Xm9FA-218" value="Начало" style="rounded=1;whiteSpace=wrap;html=1;arcSize=50;" vertex="1" parent="1">
          <mxGeometry x="359" y="70" width="110" height="40" as="geometry" />
        </mxCell>
        <mxCell id="bxHcni_rUdnKQo_Xm9FA-219" value="Ввод N, M, b" style="shape=parallelogram;perimeter=parallelogramPerimeter;whiteSpace=wrap;html=1;fixedSize=1;" vertex="1" parent="1">
          <mxGeometry x="354" y="140" width="120" height="40" as="geometry" />
        </mxCell>
        <mxCell id="bxHcni_rUdnKQo_Xm9FA-221" value="" style="endArrow=classic;html=1;rounded=0;exitX=0.5;exitY=1;exitDx=0;exitDy=0;entryX=0.5;entryY=0;entryDx=0;entryDy=0;" edge="1" parent="1" target="bxHcni_rUdnKQo_Xm9FA-232">
          <mxGeometry width="50" height="50" relative="1" as="geometry">
            <mxPoint x="414" y="330" as="sourcePoint" />
            <mxPoint x="424" y="380" as="targetPoint" />
          </mxGeometry>
        </mxCell>
        <mxCell id="bxHcni_rUdnKQo_Xm9FA-222" value="i, j = 1, 1&lt;div&gt;res = 0&lt;/div&gt;" style="rounded=0;whiteSpace=wrap;html=1;" vertex="1" parent="1">
          <mxGeometry x="354" y="210" width="120" height="40" as="geometry" />
        </mxCell>
        <mxCell id="bxHcni_rUdnKQo_Xm9FA-223" value="res = res + i + b + m" style="rounded=0;whiteSpace=wrap;html=1;" vertex="1" parent="1">
          <mxGeometry x="354" y="610" width="120" height="40" as="geometry" />
        </mxCell>
        <mxCell id="bxHcni_rUdnKQo_Xm9FA-225" value="" style="endArrow=classic;html=1;rounded=0;exitX=0.5;exitY=1;exitDx=0;exitDy=0;" edge="1" parent="1" source="bxHcni_rUdnKQo_Xm9FA-223">
          <mxGeometry width="50" height="50" relative="1" as="geometry">
            <mxPoint x="164" y="520" as="sourcePoint" />
            <mxPoint x="414" y="679.9999999999999" as="targetPoint" />
          </mxGeometry>
        </mxCell>
        <mxCell id="bxHcni_rUdnKQo_Xm9FA-226" value="" style="endArrow=classic;html=1;rounded=0;exitX=0.064;exitY=0.559;exitDx=0;exitDy=0;entryX=0;entryY=0.5;entryDx=0;entryDy=0;exitPerimeter=0;" edge="1" parent="1" source="bxHcni_rUdnKQo_Xm9FA-247" target="bxHcni_rUdnKQo_Xm9FA-243">
          <mxGeometry width="50" height="50" relative="1" as="geometry">
            <mxPoint x="371.5" y="694.9999999999999" as="sourcePoint" />
            <mxPoint x="359" y="310" as="targetPoint" />
            <Array as="points">
              <mxPoint x="314" y="700" />
              <mxPoint x="314" y="310" />
            </Array>
          </mxGeometry>
        </mxCell>
        <mxCell id="bxHcni_rUdnKQo_Xm9FA-227" value="" style="endArrow=classic;html=1;rounded=0;exitX=0.5;exitY=1;exitDx=0;exitDy=0;entryX=0.5;entryY=0;entryDx=0;entryDy=0;" edge="1" parent="1" source="bxHcni_rUdnKQo_Xm9FA-218" target="bxHcni_rUdnKQo_Xm9FA-219">
          <mxGeometry width="50" height="50" relative="1" as="geometry">
            <mxPoint x="134" y="220" as="sourcePoint" />
            <mxPoint x="184" y="170" as="targetPoint" />
          </mxGeometry>
        </mxCell>
        <mxCell id="bxHcni_rUdnKQo_Xm9FA-228" value="" style="endArrow=classic;html=1;rounded=0;exitX=0.5;exitY=1;exitDx=0;exitDy=0;entryX=0.5;entryY=0;entryDx=0;entryDy=0;" edge="1" parent="1" source="bxHcni_rUdnKQo_Xm9FA-219" target="bxHcni_rUdnKQo_Xm9FA-222">
          <mxGeometry width="50" height="50" relative="1" as="geometry">
            <mxPoint x="154" y="280" as="sourcePoint" />
            <mxPoint x="204" y="230" as="targetPoint" />
          </mxGeometry>
        </mxCell>
        <mxCell id="bxHcni_rUdnKQo_Xm9FA-229" value="Вывод res" style="shape=parallelogram;perimeter=parallelogramPerimeter;whiteSpace=wrap;html=1;fixedSize=1;" vertex="1" parent="1">
          <mxGeometry x="354" y="750" width="120" height="40" as="geometry" />
        </mxCell>
        <mxCell id="bxHcni_rUdnKQo_Xm9FA-230" value="" style="endArrow=classic;html=1;rounded=0;exitX=0.5;exitY=1;exitDx=0;exitDy=0;" edge="1" parent="1" source="bxHcni_rUdnKQo_Xm9FA-229" target="bxHcni_rUdnKQo_Xm9FA-231">
          <mxGeometry width="50" height="50" relative="1" as="geometry">
            <mxPoint x="414" y="920" as="sourcePoint" />
            <mxPoint x="414" y="850" as="targetPoint" />
          </mxGeometry>
        </mxCell>
        <mxCell id="bxHcni_rUdnKQo_Xm9FA-231" value="Конец" style="rounded=1;whiteSpace=wrap;html=1;arcSize=50;" vertex="1" parent="1">
          <mxGeometry x="354" y="830" width="120" height="40" as="geometry" />
        </mxCell>
        <mxCell id="bxHcni_rUdnKQo_Xm9FA-232" value="m = 1" style="rounded=0;whiteSpace=wrap;html=1;" vertex="1" parent="1">
          <mxGeometry x="374" y="360" width="80" height="30" as="geometry" />
        </mxCell>
        <mxCell id="bxHcni_rUdnKQo_Xm9FA-234" value="m = m * (i + j*j) / 3" style="rounded=0;whiteSpace=wrap;html=1;" vertex="1" parent="1">
          <mxGeometry x="354" y="480" width="120" height="40" as="geometry" />
        </mxCell>
        <mxCell id="bxHcni_rUdnKQo_Xm9FA-236" value="" style="endArrow=classic;html=1;rounded=0;exitX=0.5;exitY=1;exitDx=0;exitDy=0;entryX=0.5;entryY=0;entryDx=0;entryDy=0;" edge="1" parent="1" target="bxHcni_rUdnKQo_Xm9FA-234">
          <mxGeometry width="50" height="50" relative="1" as="geometry">
            <mxPoint x="414" y="450" as="sourcePoint" />
            <mxPoint x="454" y="474.5" as="targetPoint" />
          </mxGeometry>
        </mxCell>
        <mxCell id="bxHcni_rUdnKQo_Xm9FA-237" value="" style="endArrow=classic;html=1;rounded=0;exitX=1;exitY=0.5;exitDx=0;exitDy=0;entryX=1;entryY=0.5;entryDx=0;entryDy=0;" edge="1" parent="1" source="bxHcni_rUdnKQo_Xm9FA-245" target="bxHcni_rUdnKQo_Xm9FA-223">
          <mxGeometry width="50" height="50" relative="1" as="geometry">
            <mxPoint x="469" y="430" as="sourcePoint" />
            <mxPoint x="544" y="520" as="targetPoint" />
            <Array as="points">
              <mxPoint x="494" y="430" />
              <mxPoint x="494" y="630" />
            </Array>
          </mxGeometry>
        </mxCell>
        <mxCell id="bxHcni_rUdnKQo_Xm9FA-238" value="" style="endArrow=classic;html=1;rounded=0;exitX=0.011;exitY=0.559;exitDx=0;exitDy=0;entryX=0;entryY=0.5;entryDx=0;entryDy=0;exitPerimeter=0;" edge="1" parent="1" source="bxHcni_rUdnKQo_Xm9FA-246" target="bxHcni_rUdnKQo_Xm9FA-245">
          <mxGeometry width="50" height="50" relative="1" as="geometry">
            <mxPoint x="371.5" y="565" as="sourcePoint" />
            <mxPoint x="359" y="430" as="targetPoint" />
            <Array as="points">
              <mxPoint x="334" y="570" />
              <mxPoint x="334" y="430" />
            </Array>
          </mxGeometry>
        </mxCell>
        <mxCell id="bxHcni_rUdnKQo_Xm9FA-239" value="" style="endArrow=classic;html=1;rounded=0;exitX=0.5;exitY=1;exitDx=0;exitDy=0;entryX=0.5;entryY=0;entryDx=0;entryDy=0;" edge="1" parent="1" source="bxHcni_rUdnKQo_Xm9FA-234">
          <mxGeometry width="50" height="50" relative="1" as="geometry">
            <mxPoint x="284" y="630" as="sourcePoint" />
            <mxPoint x="414" y="550" as="targetPoint" />
          </mxGeometry>
        </mxCell>
        <mxCell id="bxHcni_rUdnKQo_Xm9FA-240" value="" style="endArrow=classic;html=1;rounded=0;exitX=1;exitY=0.5;exitDx=0;exitDy=0;entryX=0.5;entryY=0;entryDx=0;entryDy=0;" edge="1" parent="1" source="bxHcni_rUdnKQo_Xm9FA-243" target="bxHcni_rUdnKQo_Xm9FA-229">
          <mxGeometry width="50" height="50" relative="1" as="geometry">
            <mxPoint x="469" y="310" as="sourcePoint" />
            <mxPoint x="434" y="760" as="targetPoint" />
            <Array as="points">
              <mxPoint x="514" y="310" />
              <mxPoint x="514" y="730" />
              <mxPoint x="414" y="730" />
            </Array>
          </mxGeometry>
        </mxCell>
        <mxCell id="bxHcni_rUdnKQo_Xm9FA-241" value="" style="endArrow=classic;html=1;rounded=0;exitX=0.5;exitY=1;exitDx=0;exitDy=0;entryX=0.5;entryY=0;entryDx=0;entryDy=0;" edge="1" parent="1" source="bxHcni_rUdnKQo_Xm9FA-222">
          <mxGeometry width="50" height="50" relative="1" as="geometry">
            <mxPoint x="264" y="320" as="sourcePoint" />
            <mxPoint x="414" y="290" as="targetPoint" />
          </mxGeometry>
        </mxCell>
        <mxCell id="bxHcni_rUdnKQo_Xm9FA-242" value="" style="endArrow=classic;html=1;rounded=0;exitX=0.5;exitY=1;exitDx=0;exitDy=0;entryX=0.5;entryY=0;entryDx=0;entryDy=0;" edge="1" parent="1" source="bxHcni_rUdnKQo_Xm9FA-232">
          <mxGeometry width="50" height="50" relative="1" as="geometry">
            <mxPoint x="134" y="530" as="sourcePoint" />
            <mxPoint x="414" y="410" as="targetPoint" />
          </mxGeometry>
        </mxCell>
        <mxCell id="bxHcni_rUdnKQo_Xm9FA-243" value="i &amp;lt;= N" style="shape=hexagon;perimeter=hexagonPerimeter2;whiteSpace=wrap;html=1;fixedSize=1;" vertex="1" parent="1">
          <mxGeometry x="369" y="290" width="90" height="40" as="geometry" />
        </mxCell>
        <mxCell id="bxHcni_rUdnKQo_Xm9FA-245" value="j &amp;lt;= M" style="shape=hexagon;perimeter=hexagonPerimeter2;whiteSpace=wrap;html=1;fixedSize=1;" vertex="1" parent="1">
          <mxGeometry x="366.5" y="410" width="90" height="40" as="geometry" />
        </mxCell>
        <mxCell id="bxHcni_rUdnKQo_Xm9FA-246" value="j" style="ellipse;whiteSpace=wrap;html=1;aspect=fixed;" vertex="1" parent="1">
          <mxGeometry x="396.5" y="550" width="35" height="35" as="geometry" />
        </mxCell>
        <mxCell id="bxHcni_rUdnKQo_Xm9FA-247" value="i" style="ellipse;whiteSpace=wrap;html=1;aspect=fixed;" vertex="1" parent="1">
          <mxGeometry x="396.5" y="680" width="35" height="35" as="geometry" />
        </mxCell>
      </root>
    </mxGraphModel>
  </diagram>
</mxfile>
